{
  "accessors": [
    {
      "bufferView": 2,
      "componentType": 5126,
      "count": 24,
      "max": [
        10.258166313171387,
        4.6599321365356445,
        6.173590183258057
      ],
      "min": [
        9.100937843322754,
        3.502703905105591,
        5.900489807128906
      ],
      "type": "VEC3"
    },
    {
      "bufferView": 2,
      "byteOffset": 288,
      "componentType": 5126,
      "count": 24,
      "max": [
        0.0,
        0.0,
        1.0
      ],
      "min": [
        0.0,
        0.0,
        -1.0
      ],
      "type": "VEC3"
    },
    {
      "bufferView": 1,
      "componentType": 5126,
      "count": 24,
      "max": [
        0.15911376476287842,
        0.4726618826389313
      ],
      "min": [
        0.06468912959098816,
        0.37781429290771484
      ],
      "type": "VEC2"
    },
    {
      "bufferView": 0,
      "componentType": 5125,
      "count": 60,
      "type": "SCALAR"
    },
    {
      "bufferView": 2,
      "byteOffset": 576,
      "componentType": 5126,
      "count": 172,
      "max": [
        10.304494857788086,
        4.706299781799316,
        6.204256057739258
      ],
      "min": [
        8.634774208068848,
        3.45633602142334,
        5.869822978973389
      ],
      "type": "VEC3"
    },
    {
      "bufferView": 2,
      "byteOffset": 2640,
      "componentType": 5126,
      "count": 172,
      "max": [
        1.0,
        1.0,
        1.0
      ],
      "min": [
        -1.0,
        -1.0,
        -1.0
      ],
      "type": "VEC3"
    },
    {
      "bufferView": 1,
      "byteOffset": 192,
      "componentType": 5126,
      "count": 172,
      "max": [
        0.4941917657852173,
        0.48065388202667236
      ],
      "min": [
        0.0568104088306427,
        0.21056631207466125
      ],
      "type": "VEC2"
    },
    {
      "bufferView": 0,
      "byteOffset": 240,
      "componentType": 5125,
      "count": 264,
      "type": "SCALAR"
    },
    {
      "bufferView": 2,
      "byteOffset": 4704,
      "componentType": 5126,
      "count": 2325,
      "max": [
        10.258166313171387,
        6.401723861694336,
        7.335591793060303
      ],
      "min": [
        -1.4098279476165771,
        0.0,
        -0.6361470222473145
      ],
      "type": "VEC3"
    },
    {
      "bufferView": 2,
      "byteOffset": 32604,
      "componentType": 5126,
      "count": 2325,
      "max": [
        1.0,
        1.0,
        1.0
      ],
      "min": [
        -1.0,
        -1.0,
        -1.0
      ],
      "type": "VEC3"
    },
    {
      "bufferView": 1,
      "byteOffset": 1568,
      "componentType": 5126,
      "count": 2325,
      "max": [
        0.9797816872596741,
        0.9779727458953857
      ],
      "min": [
        0.017533093690872192,
        0.07067961990833282
      ],
      "type": "VEC2"
    },
    {
      "bufferView": 0,
      "byteOffset": 1296,
      "componentType": 5125,
      "count": 9030,
      "type": "SCALAR"
    },
    {
      "bufferView": 2,
      "byteOffset": 60504,
      "componentType": 5126,
      "count": 1657,
      "max": [
        9.07752513885498,
        6.220584869384766,
        7.251200199127197
      ],
      "min": [
        -1.516798973083496,
        0.0,
        -0.7428380250930786
      ],
      "type": "VEC3"
    },
    {
      "bufferView": 2,
      "byteOffset": 80388,
      "componentType": 5126,
      "count": 1657,
      "max": [
        1.0,
        1.0,
        1.0
      ],
      "min": [
        -1.0,
        -1.0,
        -1.0
      ],
      "type": "VEC3"
    },
    {
      "bufferView": 1,
      "byteOffset": 20168,
      "componentType": 5126,
      "count": 1657,
      "max": [
        0.9824175834655762,
        0.5897752046585083
      ],
      "min": [
        0.017582416534423828,
        0.0798359140753746
      ],
      "type": "VEC2"
    },
    {
      "bufferView": 0,
      "byteOffset": 37416,
      "componentType": 5125,
      "count": 4164,
      "type": "SCALAR"
    },
    {
      "bufferView": 2,
      "byteOffset": 100272,
      "componentType": 5126,
      "count": 197,
      "max": [
        7.829937934875488,
        3.525407075881958,
        6.985137939453125
      ],
      "min": [
        2.7754249572753906,
        0.0,
        6.410910129547119
      ],
      "type": "VEC3"
    },
    {
      "bufferView": 2,
      "byteOffset": 102636,
      "componentType": 5126,
      "count": 197,
      "max": [
        1.0,
        0.0,
        1.0
      ],
      "min": [
        -1.0,
        -1.9999999949504854e-06,
        0.0
      ],
      "type": "VEC3"
    },
    {
      "bufferView": 1,
      "byteOffset": 33424,
      "componentType": 5126,
      "count": 197,
      "max": [
        0.40049317479133606,
        0.8374113440513611
      ],
      "min": [
        0.34227558970451355,
        0.7086652517318726
      ],
      "type": "VEC2"
    },
    {
      "bufferView": 0,
      "byteOffset": 54072,
      "componentType": 5125,
      "count": 624,
      "type": "SCALAR"
    },
    {
      "bufferView": 2,
      "byteOffset": 105000,
      "componentType": 5126,
      "count": 604,
      "max": [
        8.720518112182617,
        2.9688880443573,
        6.704816818237305
      ],
      "min": [
        -0.3556079864501953,
        0.0,
        1.7492120265960693
      ],
      "type": "VEC3"
    },
    {
      "bufferView": 2,
      "byteOffset": 112248,
      "componentType": 5126,
      "count": 604,
      "max": [
        1.0,
        1.0,
        1.0
      ],
      "min": [
        -1.0,
        -1.0,
        -1.0
      ],
      "type": "VEC3"
    },
    {
      "bufferView": 1,
      "byteOffset": 35000,
      "componentType": 5126,
      "count": 604,
      "max": [
        0.4001249670982361,
        0.9656660556793213
      ],
      "min": [
        0.03398440033197403,
        0.5668913125991821
      ],
      "type": "VEC2"
    },
    {
      "bufferView": 0,
      "byteOffset": 56568,
      "componentType": 5125,
      "count": 1704,
      "type": "SCALAR"
    },
    {
      "bufferView": 2,
      "byteOffset": 119496,
      "componentType": 5126,
      "count": 468,
      "max": [
        8.725072860717773,
        3.525407075881958,
        6.500833988189697
      ],
      "min": [
        -1.1643470525741577,
        0.0,
        -0.39339300990104675
      ],
      "type": "VEC3"
    },
    {
      "bufferView": 2,
      "byteOffset": 125112,
      "componentType": 5126,
      "count": 468,
      "max": [
        1.0,
        4.600000102072954e-05,
        1.0
      ],
      "min": [
        -1.0,
        -7.300000288523734e-05,
        -1.0
      ],
      "type": "VEC3"
    },
    {
      "bufferView": 1,
      "byteOffset": 39832,
      "componentType": 5126,
      "count": 468,
      "max": [
        0.3251899480819702,
        0.8415313363075256
      ],
      "min": [
        0.2840816378593445,
        0.7113140821456909
      ],
      "type": "VEC2"
    },
    {
      "bufferView": 0,
      "byteOffset": 63384,
      "componentType": 5125,
      "count": 1248,
      "type": "SCALAR"
    },
    {
      "bufferView": 2,
      "byteOffset": 130728,
      "componentType": 5126,
      "count": 64,
      "max": [
        8.662919998168945,
        2.9197850227355957,
        6.645930767059326
      ],
      "min": [
        -0.2902739942073822,
        0.12024100124835968,
        1.8694360256195068
      ],
      "type": "VEC3"
    },
    {
      "bufferView": 2,
      "byteOffset": 131496,
      "componentType": 5126,
      "count": 64,
      "max": [
        1.0,
        3.000000106112566e-06,
        1.0
      ],
      "min": [
        -1.9999999949504854e-06,
        -2.8000000384054147e-05,
        0.0
      ],
      "type": "VEC3"
    },
    {
      "bufferView": 1,
      "byteOffset": 43576,
      "componentType": 5126,
      "count": 64,
      "max": [
        0.25805261731147766,
        0.8842564821243286
      ],
      "min": [
        0.14833877980709076,
        0.37175315618515015
      ],
      "type": "VEC2"
    },
    {
      "bufferView": 0,
      "byteOffset": 68376,
      "componentType": 5125,
      "count": 144,
      "type": "SCALAR"
    },
    {
      "bufferView": 2,
      "byteOffset": 132264,
      "componentType": 5126,
      "count": 16,
      "max": [
        0.9777740240097046,
        2.182055950164795,
        -0.2969380021095276
      ],
      "min": [
        -0.05429000034928322,
        0.0,
        -0.2969380021095276
      ],
      "type": "VEC3"
    },
    {
      "bufferView": 2,
      "byteOffset": 132456,
      "componentType": 5126,
      "count": 16,
      "max": [
        0.0,
        0.0,
        -1.0
      ],
      "min": [
        0.0,
        0.0,
        -1.0
      ],
      "type": "VEC3"
    },
    {
      "bufferView": 1,
      "byteOffset": 44088,
      "componentType": 5126,
      "count": 16,
      "max": [
        0.9062243700027466,
        0.39680489897727966
      ],
      "min": [
        0.8644410371780396,
        0.30868953466415405
      ],
      "type": "VEC2"
    },
    {
      "bufferView": 0,
      "byteOffset": 68952,
      "componentType": 5125,
      "count": 42,
      "type": "SCALAR"
    },
    {
      "bufferView": 2,
      "byteOffset": 132648,
      "componentType": 5126,
      "count": 116,
      "max": [
        8.950277328491211,
        0.9700539708137512,
        4.415042877197266
      ],
      "min": [
        8.612767219543457,
        0.7990790009498596,
        1.7492120265960693
      ],
      "type": "VEC3"
    },
    {
      "bufferView": 2,
      "byteOffset": 134040,
      "componentType": 5126,
      "count": 116,
      "max": [
        1.0,
        1.0,
        1.0
      ],
      "min": [
        0.0,
        -1.0,
        -1.0
      ],
      "type": "VEC3"
    },
    {
      "bufferView": 1,
      "byteOffset": 44216,
      "componentType": 5126,
      "count": 116,
      "max": [
        0.46887919306755066,
        0.6725211143493652
      ],
      "min": [
        0.22523435950279236,
        0.6234298944473267
      ],
      "type": "VEC2"
    },
    {
      "bufferView": 0,
      "byteOffset": 69120,
      "componentType": 5125,
      "count": 234,
      "type": "SCALAR"
    },
    {
      "bufferView": 2,
      "byteOffset": 135432,
      "componentType": 5126,
      "count": 24,
      "max": [
        10.070612907409668,
        3.383220911026001,
        6.04823112487793
      ],
      "min": [
        8.49001693725586,
        2.1158111095428467,
        0.11935599893331528
      ],
      "type": "VEC3"
    },
    {
      "bufferView": 2,
      "byteOffset": 135720,
      "componentType": 5126,
      "count": 24,
      "max": [
        1.0,
        0.8830403089523315,
        1.0
      ],
      "min": [
        0.0,
        0.0,
        -1.0
      ],
      "type": "VEC3"
    },
    {
      "bufferView": 1,
      "byteOffset": 45144,
      "componentType": 5126,
      "count": 24,
      "max": [
        0.7034565210342407,
        0.9596199989318848
      ],
      "min": [
        0.14554128050804138,
        0.7180013656616211
      ],
      "type": "VEC2"
    },
    {
      "bufferView": 0,
      "byteOffset": 70056,
      "componentType": 5125,
      "count": 42,
      "type": "SCALAR"
    }
  ],
  "asset": {
    "extras": {
      "author": "liquidchung (https://sketchfab.com/liquidchung)",
      "license": "CC-BY-4.0 (http://creativecommons.org/licenses/by/4.0/)",
      "source": "https://sketchfab.com/3d-models/pharmacy-08d629eb11e644eca26c30d2fe6a98fb",
      "title": "Pharmacy"
    },
    "generator": "Sketchfab-15.36.0",
    "version": "2.0"
  },
  "bufferViews": [
    {
      "buffer": 0,
      "byteLength": 70224,
      "name": "floatBufferViews",
      "target": 34963
    },
    {
      "buffer": 0,
      "byteLength": 45336,
      "byteOffset": 70224,
      "byteStride": 8,
      "name": "floatBufferViews",
      "target": 34962
    },
    {
      "buffer": 0,
      "byteLength": 136008,
      "byteOffset": 115560,
      "byteStride": 12,
      "name": "floatBufferViews",
      "target": 34962
    }
  ],
  "buffers": [
    {
      "byteLength": 251568,
      "uri": "scene.bin"
    }
  ],
  "materials": [
    {
      "doubleSided": true,
      "name": "plus",
      "pbrMetallicRoughness": {
        "baseColorFactor": [
          0.4705,
          0.5456,
          1.0,
          1.0
        ],
        "metallicFactor": 0.0,
        "roughnessFactor": 0.6
      }
    },
    {
      "doubleSided": true,
      "name": "plus_exterior",
      "pbrMetallicRoughness": {
        "metallicFactor": 0.0,
        "roughnessFactor": 0.6
      }
    },
    {
      "doubleSided": true,
      "name": "building",
      "pbrMetallicRoughness": {
        "baseColorFactor": [
          0.348388,
          0.375681,
          0.407806,
          1.0
        ],
        "metallicFactor": 0.0,
        "roughnessFactor": 0.6
      }
    },
    {
      "doubleSided": true,
      "name": "building_trim",
      "pbrMetallicRoughness": {
        "baseColorFactor": [
          0.19642,
          0.182251,
          0.241307,
          1.0
        ],
        "metallicFactor": 0.0,
        "roughnessFactor": 0.6
      }
    },
    {
      "doubleSided": true,
      "name": "brick",
      "pbrMetallicRoughness": {
        "baseColorFactor": [
          0.162723,
          0.175471,
          0.190476,
          1.0
        ],
        "metallicFactor": 0.0,
        "roughnessFactor": 0.6
      }
    },
    {
      "doubleSided": true,
      "name": "windows",
      "pbrMetallicRoughness": {
        "metallicFactor": 0.0,
        "roughnessFactor": 0.6
      }
    },
    {
      "doubleSided": true,
      "name": "outer_supports",
      "pbrMetallicRoughness": {
        "baseColorFactor": [
          0.613172,
          0.661323,
          0.718,
          1.0
        ],
        "metallicFactor": 0.0,
        "roughnessFactor": 0.6
      }
    },
    {
      "doubleSided": true,
      "name": "glass",
      "pbrMetallicRoughness": {
        "baseColorFactor": [
          0.3704,
          0.3889,
          0.4107,
          1.0
        ],
        "metallicFactor": 0.0,
        "roughnessFactor": 0.6
      }
    },
    {
      "doubleSided": true,
      "name": "door",
      "pbrMetallicRoughness": {
        "baseColorFactor": [
          0.5,
          0.5,
          0.5,
          1.0
        ],
        "metallicFactor": 0.0,
        "roughnessFactor": 0.6
      }
    },
    {
      "doubleSided": true,
      "name": "window_ledge",
      "pbrMetallicRoughness": {
        "baseColorFactor": [
          0.3581,
          0.3009,
          0.2036,
          1.0
        ],
        "metallicFactor": 0.0,
        "roughnessFactor": 0.6
      }
    },
    {
      "doubleSided": true,
      "name": "awning",
      "pbrMetallicRoughness": {
        "baseColorFactor": [
          0.1048,
          0.1136,
          0.167,
          1.0
        ],
        "metallicFactor": 0.0,
        "roughnessFactor": 0.6
      }
    }
  ],
  "meshes": [
    {
      "name": "Pharmacy_Fixed:Pharmacy_Comb_UV_plus_0",
      "primitives": [
        {
          "attributes": {
            "NORMAL": 1,
            "POSITION": 0,
            "TEXCOORD_0": 2
          },
          "indices": 3,
          "material": 0,
          "mode": 4
        }
      ]
    },
    {
      "name": "Pharmacy_Fixed:Pharmacy_Comb_UV_plus_exterior_0",
      "primitives": [
        {
          "attributes": {
            "NORMAL": 5,
            "POSITION": 4,
            "TEXCOORD_0": 6
          },
          "indices": 7,
          "material": 1,
          "mode": 4
        }
      ]
    },
    {
      "name": "Pharmacy_Fixed:Pharmacy_Comb_UV_building_0",
      "primitives": [
        {
          "attributes": {
            "NORMAL": 9,
            "POSITION": 8,
            "TEXCOORD_0": 10
          },
          "indices": 11,
          "material": 2,
          "mode": 4
        }
      ]
    },
    {
      "name": "Pharmacy_Fixed:Pharmacy_Comb_UV_building_trim_0",
      "primitives": [
        {
          "attributes": {
            "NORMAL": 13,
            "POSITION": 12,
            "TEXCOORD_0": 14
          },
          "indices": 15,
          "material": 3,
          "mode": 4
        }
      ]
    },
    {
      "name": "Pharmacy_Fixed:Pharmacy_Comb_UV_brick_0",
      "primitives": [
        {
          "attributes": {
            "NORMAL": 17,
            "POSITION": 16,
            "TEXCOORD_0": 18
          },
          "indices": 19,
          "material": 4,
          "mode": 4
        }
      ]
    },
    {
      "name": "Pharmacy_Fixed:Pharmacy_Comb_UV_windows_0",
      "primitives": [
        {
          "attributes": {
            "NORMAL": 21,
            "POSITION": 20,
            "TEXCOORD_0": 22
          },
          "indices": 23,
          "material": 5,
          "mode": 4
        }
      ]
    },
    {
      "name": "Pharmacy_Fixed:Pharmacy_Comb_UV_outer_supports_0",
      "primitives": [
        {
          "attributes": {
            "NORMAL": 25,
            "POSITION": 24,
            "TEXCOORD_0": 26
          },
          "indices": 27,
          "material": 6,
          "mode": 4
        }
      ]
    },
    {
      "name": "Pharmacy_Fixed:Pharmacy_Comb_UV_glass_0",
      "primitives": [
        {
          "attributes": {
            "NORMAL": 29,
            "POSITION": 28,
            "TEXCOORD_0": 30
          },
          "indices": 31,
          "material": 7,
          "mode": 4
        }
      ]
    },
    {
      "name": "Pharmacy_Fixed:Pharmacy_Comb_UV_door_0",
      "primitives": [
        {
          "attributes": {
            "NORMAL": 33,
            "POSITION": 32,
            "TEXCOORD_0": 34
          },
          "indices": 35,
          "material": 8,
          "mode": 4
        }
      ]
    },
    {
      "name": "Pharmacy_Fixed:Pharmacy_Comb_UV_window_ledge_0",
      "primitives": [
        {
          "attributes": {
            "NORMAL": 37,
            "POSITION": 36,
            "TEXCOORD_0": 38
          },
          "indices": 39,
          "material": 9,
          "mode": 4
        }
      ]
    },
    {
      "name": "Pharmacy_Fixed:Pharmacy_Comb_UV_awning_0",
      "primitives": [
        {
          "attributes": {
            "NORMAL": 41,
            "POSITION": 40,
            "TEXCOORD_0": 42
          },
          "indices": 43,
          "material": 10,
          "mode": 4
        }
      ]
    }
  ],
  "nodes": [
    {
      "children": [
        1
      ],
      "matrix": [
        1.0,
        0.0,
        0.0,
        0.0,
        0.0,
        2.220446049250313e-16,
        -1.0,
        0.0,
        0.0,
        1.0,
        2.220446049250313e-16,
        0.0,
        0.0,
        0.0,
        0.0,
        1.0
      ],
      "name": "Sketchfab_model"
    },
    {
      "children": [
        2
      ],
      "matrix": [
        0.009999999776482582,
        0.0,
        0.0,
        0.0,
        0.0,
        0.0,
        0.009999999776482582,
        0.0,
        0.0,
        -0.009999999776482582,
        0.0,
        0.0,
        0.0,
        0.0,
        0.0,
        1.0
      ],
      "name": "6ad2ae8975234ac0b51f5af9c1999676.fbx"
    },
    {
      "children": [
        3
      ],
      "name": "RootNode"
    },
    {
      "children": [
        4,
        5,
        6,
        7,
        8,
        9,
        10,
        11,
        12,
        13,
        14
      ],
      "name": "Pharmacy_Fixed:Pharmacy_Comb_UV"
    },
    {
      "mesh": 0,
      "name": "Pharmacy_Fixed:Pharmacy_Comb_UV_plus_0"
    },
    {
      "mesh": 1,
      "name": "Pharmacy_Fixed:Pharmacy_Comb_UV_plus_exterior_0"
    },
    {
      "mesh": 2,
      "name": "Pharmacy_Fixed:Pharmacy_Comb_UV_building_0"
    },
    {
      "mesh": 3,
      "name": "Pharmacy_Fixed:Pharmacy_Comb_UV_building_trim_0"
    },
    {
      "mesh": 4,
      "name": "Pharmacy_Fixed:Pharmacy_Comb_UV_brick_0"
    },
    {
      "mesh": 5,
      "name": "Pharmacy_Fixed:Pharmacy_Comb_UV_windows_0"
    },
    {
      "mesh": 6,
      "name": "Pharmacy_Fixed:Pharmacy_Comb_UV_outer_supports_0"
    },
    {
      "mesh": 7,
      "name": "Pharmacy_Fixed:Pharmacy_Comb_UV_glass_0"
    },
    {
      "mesh": 8,
      "name": "Pharmacy_Fixed:Pharmacy_Comb_UV_door_0"
    },
    {
      "mesh": 9,
      "name": "Pharmacy_Fixed:Pharmacy_Comb_UV_window_ledge_0"
    },
    {
      "mesh": 10,
      "name": "Pharmacy_Fixed:Pharmacy_Comb_UV_awning_0"
    }
  ],
  "scene": 0,
  "scenes": [
    {
      "name": "Sketchfab_Scene",
      "nodes": [
        0
      ]
    }
  ]
}
